# xmcd CD database file generated by OrangeCD 5.2
#
# Track frame offsets:
#	210
#	18080
#	25966
#	42321
#	50898
#	67158
#	80646
#	87600
#	99083
#	112970
#	127663
#	146902
#	156608
#	170763
#	193241
#
# Disc length: 2762 seconds
#
# Revision: 0
# Processed by: cddbd v1.5.2PL0 Copyright (c) Steve Scherf et al.
# Submitted via: OrangeCD 5.2
#
DISCID=d80ac80f
DTITLE=Trenton Cooper - The Piano Styles of...
DYEAR=1900
DGENRE=Blues
TTITLE0=Think the World of You 
TTITLE1=Jazzy Boogie
TTITLE2=How Long Blues
TTITLE3=Jazzy Stomp
TTITLE4=Ain't Nobody's Business
TTITLE5=Everyday I Have the Blues [Take 1]
TTITLE6=Boogie Woogie
TTITLE7=Baby What You Do for Me
TTITLE8=Everyday I Have the Blues [Take 2]
TTITLE9=Instrumental Blues Improvisation [Take 1]
TTITLE10=After Hours
TTITLE11=How Long Blues [instrumental]
TTITLE12=St. Louis Blues Handy
TTITLE13=Goin' to Chicago
TTITLE14=Instrumental Blues Improvisation [Take 2]
EXTD=
EXTT0=
EXTT1=
EXTT2=
EXTT3=
EXTT4=
EXTT5=
EXTT6=
EXTT7=
EXTT8=
EXTT9=
EXTT10=
EXTT11=
EXTT12=
EXTT13=
EXTT14=
PLAYORDER=
